<?xml version="1.0" standalone="no"?>
<!DOCTYPE svg PUBLIC "-//W3C//DTD SVG 20010904//EN"
 "http://www.w3.org/TR/2001/REC-SVG-20010904/DTD/svg10.dtd">
<svg version="1.0" xmlns="http://www.w3.org/2000/svg"
 width="600.000000pt" height="600.000000pt" viewBox="0 0 600.000000 600.000000"
 preserveAspectRatio="xMidYMid meet">
<metadata>
Created by potrace 1.14, written by Peter Selinger 2001-2017
</metadata>
<g transform="translate(0.000000,600.000000) scale(0.100000,-0.100000)"
fill="#000000" stroke="none">
<path d="M0 3000 l0 -3000 3000 0 3000 0 0 3000 0 3000 -3000 0 -3000 0 0
-3000z m4632 1613 l178 -178 0 -1415 0 -1415 -177 -177 -178 -178 -1420 0
-1420 0 -178 178 -177 177 0 1415 0 1415 177 177 178 178 1420 0 1420 0 177
-177z"/>
<path d="M1970 3020 l0 -1060 1065 0 1065 0 0 1060 0 1060 -1065 0 -1065 0 0
-1060z"/>
</g>
</svg>
